<svg xmlns="http://www.w3.org/2000/svg" viewBox="0 0 234.791 24.642" height="93.134" width="887.397"><path d="M42.005 7.614v3.006h-7.727V7.614zm-6.254 11.545V7.283q0-1.428.512-2.368.51-.94 1.443-1.405.932-.466 2.195-.466.789 0 1.533.12.752.12 1.112.21l-.6 2.977q-.226-.068-.527-.105-.3-.045-.526-.045-.587 0-.79.248-.202.248-.202.654v12.056zM43.606 19.16V7.613h4.15v11.545zM45.688 6.41q-.849 0-1.45-.556-.602-.556-.602-1.338t.602-1.338q.601-.556 1.443-.556.85 0 1.443.556.601.556.601 1.338t-.601 1.338q-.594.556-1.436.556zM53.427 7.614l1.683 3.578 1.774-3.578h4.12l-3.097 5.772 3.247 5.773h-4.09l-1.954-3.668-1.894 3.668h-4.149l3.277-5.773-3.066-5.772zM67.618 19.37q-1.85 0-3.187-.707-1.33-.714-2.052-2.044-.714-1.338-.714-3.203 0-1.788.721-3.126.722-1.338 2.037-2.083 1.316-.744 3.105-.744 1.308 0 2.368.406 1.06.406 1.811 1.18.752.767 1.158 1.864.405 1.098.405 2.473v.963H62.958v-2.286h6.494q-.008-.496-.256-.871-.24-.384-.653-.594-.406-.218-.925-.218-.504 0-.925.218-.42.21-.676.586-.248.376-.263.88v2.465q0 .556.233.992.233.436.669.684.436.248 1.052.248.429 0 .782-.12.36-.12.616-.346.256-.233.376-.556h3.788q-.195 1.203-.924 2.09-.73.879-1.932 1.368-1.195.48-2.796.48zM79.122 19.31q-1.233 0-2.27-.647-1.03-.646-1.654-1.962-.616-1.315-.616-3.315 0-2.09.647-3.397.653-1.308 1.683-1.917 1.038-.609 2.18-.609.857 0 1.503.301.647.293 1.083.79.436.488.661 1.074h.06V3.765h4.15V19.16h-4.12v-1.894h-.09q-.24.586-.691 1.052-.444.459-1.083.73-.631.262-1.443.262zm1.533-3.188q.572 0 .978-.33.413-.339.631-.947.226-.617.226-1.459 0-.857-.226-1.465-.218-.617-.631-.94-.406-.33-.978-.33-.57 0-.977.33-.398.323-.616.94-.21.608-.21 1.465 0 .857.21 1.474.218.608.616.94.406.322.977.322zM92.802 23.489V7.614h4.12v2.014h.09q.225-.586.661-1.075.436-.496 1.082-.789.647-.3 1.504-.3 1.142 0 2.172.608 1.037.609 1.684 1.917.654 1.308.654 3.397 0 2-.624 3.315-.617 1.316-1.654 1.962-1.03.646-2.262.646-.812 0-1.451-.263-.631-.27-1.082-.729-.444-.466-.684-1.052h-.06v6.224zm4.06-10.103q0 .842.217 1.459.226.608.632.947.413.33.984.33.572 0 .97-.323.406-.33.616-.94.218-.616.218-1.473 0-.857-.218-1.465-.21-.617-.616-.94-.398-.33-.97-.33-.571 0-.984.33-.406.323-.632.94-.218.608-.218 1.465zM106.528 19.16V7.613h4.149v11.545zM108.61 6.41q-.85 0-1.451-.556-.601-.556-.601-1.338t.601-1.338q.601-.556 1.443-.556.85 0 1.443.556.602.556.602 1.338t-.602 1.338q-.593.556-1.435.556zM118.332 19.37q-1.879 0-3.217-.745-1.338-.751-2.052-2.09-.714-1.345-.714-3.119 0-1.773.714-3.111.714-1.346 2.052-2.09 1.338-.752 3.217-.752 1.7 0 2.94.617 1.247.609 1.931 1.728.684 1.113.692 2.616h-3.849q-.083-.91-.526-1.383-.436-.48-1.127-.48-.542 0-.948.315-.405.308-.631.94-.225.623-.225 1.57 0 .947.225 1.579.226.624.631.94.406.308.948.308.458 0 .811-.21.354-.219.572-.632.225-.421.27-1.022h3.849q-.023 1.525-.7 2.66-.676 1.128-1.916 1.744-1.233.617-2.947.617zM132.512 7.614v3.006h-7.606V7.614zm-6.133-2.766h4.149v10.598q0 .24.083.406.082.158.255.24.173.076.444.076.188 0 .436-.046.255-.045.376-.075l.6 2.917q-.277.082-.796.203-.511.12-1.218.157-1.428.076-2.397-.293-.97-.375-1.459-1.18-.488-.804-.473-2.014zM141.671 14.108V7.614h4.15v11.545h-3.94v-2.195h-.12q-.375 1.105-1.315 1.73-.94.615-2.232.615-1.21 0-2.12-.556-.902-.556-1.406-1.533-.496-.977-.503-2.24V7.614h4.149v6.494q.008.857.436 1.345.436.489 1.218.489.518 0 .894-.218.383-.225.586-.631.21-.414.203-.985zM147.91 19.16V7.613h4.029v2.194h.12q.316-1.217 1-1.78.692-.565 1.616-.565.27 0 .534.045.27.038.518.113v3.54q-.308-.105-.759-.157-.45-.053-.774-.053-.609 0-1.097.278-.481.27-.76.767-.278.488-.278 1.15v6.013zM161.959 19.37q-1.85 0-3.187-.707-1.33-.714-2.052-2.044-.715-1.338-.715-3.203 0-1.788.722-3.126.722-1.338 2.037-2.083 1.315-.744 3.104-.744 1.308 0 2.368.406 1.06.406 1.812 1.18.751.767 1.157 1.864.406 1.098.406 2.473v.963h-10.313v-2.286h6.495q-.008-.496-.256-.871-.24-.384-.654-.594-.406-.218-.924-.218-.504 0-.925.218-.42.21-.676.586-.248.376-.263.88v2.465q0 .556.233.992.233.436.669.684.435.248 1.052.248.428 0 .782-.12.36-.12.616-.346.255-.233.376-.556h3.788q-.195 1.203-.924 2.09-.73.879-1.932 1.368-1.195.48-2.796.48zM169.284 23.489V7.614h4.119v2.014h.09q.225-.586.661-1.075.436-.496 1.083-.789.646-.3 1.503-.3 1.143 0 2.172.608 1.038.609 1.684 1.917.654 1.308.654 3.397 0 2-.624 3.315-.616 1.316-1.654 1.962-1.03.646-2.262.646-.812 0-1.45-.263-.632-.27-1.083-.729-.444-.466-.684-1.052h-.06v6.224zm4.058-10.103q0 .842.218 1.459.226.608.632.947.413.33.985.33.57 0 .97-.323.405-.33.616-.94.218-.616.218-1.473 0-.857-.218-1.465-.21-.617-.617-.94-.398-.33-.97-.33-.57 0-.984.33-.406.323-.632.94-.218.608-.218 1.465zM187.158 12.665v6.494h-4.15V3.765h4v6.043h.12q.39-1.104 1.3-1.72.91-.625 2.188-.625 1.225 0 2.127.557.91.556 1.405 1.533.504.977.496 2.24v7.366h-4.149v-6.494q.008-.857-.428-1.346-.429-.488-1.225-.488-.504 0-.887.225-.376.218-.587.632-.203.406-.21.977zM202.255 19.37q-1.88 0-3.217-.745-1.338-.751-2.052-2.09-.714-1.345-.714-3.119 0-1.773.714-3.111.714-1.346 2.052-2.09 1.338-.752 3.217-.752 1.88 0 3.217.752 1.338.744 2.052 2.09.714 1.338.714 3.111 0 1.774-.714 3.12-.714 1.338-2.052 2.09-1.338.744-3.217.744zm.03-3.067q.526 0 .91-.353.383-.354.593-1.008.21-.654.21-1.556 0-.91-.21-1.556-.21-.653-.593-1.007-.384-.353-.91-.353-.556 0-.954.353-.399.354-.61 1.007-.21.647-.21 1.556 0 .902.21 1.556.211.654.61 1.008.398.353.954.353zM214.071 12.665v6.494h-4.15V7.614h3.94v2.194h.12q.376-1.097 1.323-1.72.954-.625 2.225-.625 1.225 0 2.127.564.91.556 1.406 1.533.503.978.496 2.233v7.366h-4.15v-6.494q.008-.857-.435-1.346-.436-.488-1.218-.488-.511 0-.895.225-.375.218-.578.632-.203.406-.21.977zM229.138 19.37q-1.849 0-3.187-.707-1.33-.714-2.052-2.044-.714-1.338-.714-3.203 0-1.788.722-3.126.721-1.338 2.037-2.083 1.315-.744 3.104-.744 1.308 0 2.368.406 1.06.406 1.811 1.18.752.767 1.158 1.864.406 1.098.406 2.473v.963h-10.313v-2.286h6.494q-.008-.496-.255-.871-.24-.384-.654-.594-.406-.218-.925-.218-.504 0-.924.218-.421.21-.677.586-.248.376-.263.88v2.465q0 .556.233.992.233.436.669.684.436.248 1.052.248.429 0 .782-.12.36-.12.616-.346.256-.233.376-.556h3.789q-.196 1.203-.925 2.09-.73.879-1.932 1.368-1.195.48-2.796.48z"/><path d="M24.529 16.726a16.094 16.094 0 01-4.992-.595 1.375 1.375 0 00-1.406.393l-2.099 2.854c-4.051-1.743-7.915-5.182-10.056-9.223l2.65-2.44c.364-.408.455-.96.282-1.446a15.686 15.686 0 01-.98-4.93A1.405 1.405 0 006.482 0L1.62.19C.86.22-.04.592 0 1.646.508 14.702 11.793 25.13 24.836 24.624c.998-.039 1.357-.94 1.327-1.712l-.189-4.85a1.405 1.405 0 00-1.445-1.336z"/></svg>